<svg xmlns="http://www.w3.org/2000/svg" viewBox="0 0 400 400">
  <path fill="#FF9900" d="M199.7 0C89.5 0 0 89.5 0 199.7s89.5 199.7 199.7 199.7 199.7-89.5 199.7-199.7S310 0 199.7 0z"/>
  <path fill="#FFF" d="M123 257.4l-16-8.5c-1.7-.9-2.5-3-1.6-4.8l74.8-142.7c.9-1.8 3.1-2.6 4.9-1.7l15.9 8.4c1.8.9 2.6 3.1 1.7 4.9l-74.8 142.7c-.9 1.8-3.1 2.5-4.9 1.7zm76.9 30.7c-7.1 13.6-23.7 18.9-37.3 11.9-13.6-7.1-18.9-23.7-11.9-37.3s23.7-18.9 37.3-11.9c13.6 7 18.9 23.7 11.9 37.3zm74.9-142.6l-74.8 142.7c-.9 1.8-3.1 2.5-4.9 1.7l-15.9-8.4c-1.8-.9-2.6-3.1-1.7-4.9l74.8-142.7c.9-1.8 3.1-2.5 4.9-1.7l15.9 8.4c1.8.9 2.6 3.1 1.7 4.9z"/>
</svg>
