<svg xmlns="http://www.w3.org/2000/svg" viewBox="0 0 400 400">
  <path fill="#EA4335" d="M200 80c33.2 0 63.2 12.2 86.7 32.5l64-64C316.3 16.5 261.5 0 200 0 120.5 0 49.7 40.5 12.5 101.5l74 57C104.2 117.8 149.2 80 200 80z"/>
  <path fill="#FBBC05" d="M387.5 101.5C350.3 40.5 279.5 0 200 0v80c50.8 0 95.8 37.8 113.5 78.5l74-57z"/>
  <path fill="#34A853" d="M200 400c81.8 0 152.8-47.5 187.5-118.5l-74-57C295.8 282.2 250.8 320 200 320s-95.8-37.8-113.5-78.5l-74 57C47.2 352.5 118.2 400 200 400z"/>
  <path fill="#4285F4" d="M12.5 298.5l74-57C104.2 282.2 149.2 320 200 320v80c-81.8 0-152.8-47.5-187.5-118.5z"/>
</svg>
